<?xml version="1.0" encoding="utf-8"?>
<!-- Generator: Adobe Illustrator 19.2.1, SVG Export Plug-In . SVG Version: 6.00 Build 0)  -->
<svg version="1.1" id="Layer_1" xmlns="http://www.w3.org/2000/svg" xmlns:xlink="http://www.w3.org/1999/xlink" x="0px" y="0px"
	 viewBox="0 0 200 200" style="enable-background:new 0 0 200 200;" xml:space="preserve">
<style type="text/css">
	.st3{fill:#37B34A;}
	.st4{fill:#404344;}
</style>
<g>
	<path id="path3801_2_" class="st3" d="
		M97,26.3c-7.9,0-20.9,0.3-28.4,1.2C58.1,28.8,54,34.2,52.9,44c-0.9,7.5-1.5,18.4-1.5,28.5c0,10.2,0.2,21.1,1.5,28.6
		c1.6,9.8,6.2,14.9,15.7,16.4c7.5,1.2,21.3,1.2,28.4,1.2c7.1,0,20.9,0,28.4-1.2c9.4-1.5,13.9-6.6,15.7-16.4
		c1.3-7.5,1.5-18.9,1.5-28.6c0-9.7-0.9-22.6-1.5-28.5c-1-10.2-5.4-15.1-15.7-16.5C117.8,26.5,104.8,26.3,97,26.3z M128.9,36.7
		c2,0.9,5.5,6.1,4.7,11.8c-3.9,3.2-8.7,5.5-13.3,6.2v36.5H134c0,5.6-0.9,10.1-1.8,11.8h-24.9V55.3H90v28.5
		c0,14.4-8.1,21.4-18.4,21.4c-2.9,0-6.4-0.4-9.3-1.2c-1.4-1.9-2-7.4-2.2-14.4c6.9,3.3,16.2,4.9,16.9-5.9V57.1
		c-10.4,1.2-14.3,8.5-17.8,13.3c0.1-6.6,0.4-12.4,0.7-16.4C67,46.3,75,42.7,90.7,42.7h22.5C118.7,42.7,124,40.7,128.9,36.7z"/>
	<path class="st4" d="M45,165.2c0,1.2,1,1.5,1.9,1.9c0.7,0.3,1.2,0.5,1.2,1.2c0,0.8-0.7,1-1.4,1c-0.5,0-1.3-0.2-1.7-0.4l-0.1,0.8
		c0.6,0.2,1.3,0.3,1.8,0.3c1.1,0,2.2-0.5,2.2-1.8c0-1.1-0.9-1.5-1.7-1.9c-0.6-0.2-1.5-0.5-1.5-1.3c0-0.8,0.8-1,1.4-1
		c0.4,0,1,0.1,1.4,0.3l0.1-0.8c-0.4-0.1-0.9-0.2-1.5-0.2C46.1,163.4,45,163.9,45,165.2 M68.3,154.8h1.5c0.8,0,1.3,0.3,1.3,1.2
		c0,0.8-0.6,1.2-1.3,1.2h-1.5V154.8z M71.9,156c0-1.2-0.9-1.9-2.1-1.9h-2.3v6.5h0.8v-2.8h1.6C71,157.9,71.9,157.2,71.9,156
		 M109.5,158h1.8l0,1.9c-0.4,0.1-0.8,0.1-1.1,0.1c-1.6,0-2.2-1-2.2-2.6c0-1.6,0.7-2.6,2.3-2.6c0.6,0,1.3,0.1,1.8,0.2l0.1-0.7
		c-0.5-0.1-1.2-0.2-1.8-0.2c-2.1,0-3.2,1.2-3.2,3.3c0,2.5,1.3,3.3,3.1,3.3c0.6,0,1.3-0.1,1.9-0.2v-3.2h-2.6V158z M75.6,157.9
		c0-0.9-0.5-1.4-1.2-1.4c-0.9,0-1.4,0.6-1.4,1.4H75.6z M76.4,158.6H73c0,1.2,0.7,1.5,1.5,1.5c0.5,0,1.1-0.1,1.5-0.3l0,0.7
		c-0.4,0.2-1.1,0.3-1.6,0.3c-1.2,0-2.3-0.8-2.3-2.4c0-1.3,0.7-2.4,2.2-2.4C75.9,155.9,76.5,156.9,76.4,158.6 M80,160.6
		c-0.3,0.1-0.6,0.1-0.9,0.1c-0.8,0-1.2-0.5-1.2-1.3v-2.8H77V156h0.8v-1.1l0.7-0.2v1.4h1.2v0.6h-1.2v2.7c0,0.6,0.2,0.8,0.6,0.8
		c0.2,0,0.5-0.1,0.7-0.1L80,160.6z M84,157.9c0-0.9-0.5-1.4-1.2-1.4c-0.9,0-1.4,0.6-1.4,1.4H84z M84.7,158.6h-3.4
		c0,1.2,0.7,1.5,1.5,1.5c0.5,0,1.1-0.1,1.5-0.3l0,0.7c-0.4,0.2-1.1,0.3-1.6,0.3c-1.2,0-2.3-0.8-2.3-2.4c0-1.3,0.7-2.4,2.2-2.4
		C84.2,155.9,84.8,156.9,84.7,158.6 M88.5,156.7c-0.1-0.1-0.3-0.1-0.6-0.1c-0.8,0-1.1,0.7-1.1,1.4v2.7h-0.7V156h0.6l0.1,0.6
		c0.2-0.4,0.7-0.7,1.2-0.7c0.2,0,0.5,0,0.8,0.1L88.5,156.7z M99,160.7h-0.7v-3c0-0.7-0.3-1.1-0.9-1.1c-0.6,0-1.2,0.4-1.5,0.9v3.2
		h-0.7v-6.9h0.7v2.9c0.4-0.5,1-0.7,1.6-0.7c0.8,0,1.5,0.5,1.5,1.6V160.7z M103.6,157.9c0-0.9-0.5-1.4-1.2-1.4
		c-0.9,0-1.4,0.6-1.4,1.4H103.6z M104.4,158.6H101c0,1.2,0.7,1.5,1.5,1.5c0.5,0,1.1-0.1,1.5-0.3l0,0.7c-0.4,0.2-1.1,0.3-1.6,0.3
		c-1.2,0-2.3-0.8-2.3-2.4c0-1.3,0.7-2.4,2.2-2.4C103.9,155.9,104.4,156.9,104.4,158.6 M119.7,157.9c0-0.9-0.5-1.4-1.2-1.4
		c-0.9,0-1.4,0.6-1.4,1.4H119.7z M120.5,158.6h-3.4c0,1.2,0.7,1.5,1.5,1.5c0.5,0,1.1-0.1,1.5-0.3l0,0.7c-0.4,0.2-1.1,0.3-1.6,0.3
		c-1.2,0-2.3-0.8-2.3-2.4c0-1.3,0.7-2.4,2.2-2.4C120,155.9,120.5,156.9,120.5,158.6 M124.3,158.4v0.4c0,0.8-0.5,1.3-1.3,1.4
		c-0.5,0-0.9-0.2-0.9-0.8C122.1,158.3,123.1,158.4,124.3,158.4 M121.7,156.2l0,0.7c0.4-0.2,1-0.3,1.5-0.3c0.6,0,1.1,0.2,1.1,1v0.2
		c-1.7-0.1-3,0-2.9,1.5c0,0.9,0.6,1.4,1.5,1.4c0.6,0,1.1-0.3,1.5-0.6l0.1,0.5h0.6l0-3c0-1.3-0.8-1.6-1.7-1.7
		C122.8,155.9,122.1,156,121.7,156.2 M94.2,160.6c-0.3,0.1-0.6,0.1-0.9,0.1c-0.8,0-1.2-0.5-1.2-1.3v-2.8h-0.8V156H92v-1.1l0.7-0.2
		v1.4H94v0.6h-1.2v2.7c0,0.6,0.2,0.8,0.6,0.8c0.2,0,0.5-0.1,0.7-0.1L94.2,160.6z M115.9,156.7c-0.1-0.1-0.3-0.1-0.6-0.1
		c-0.8,0-1.1,0.7-1.1,1.4v2.7h-0.7V156h0.6l0.1,0.6c0.2-0.4,0.7-0.7,1.2-0.7c0.2,0,0.5,0,0.8,0.1L115.9,156.7z M128.8,160.6
		c-0.3,0.1-0.6,0.1-0.9,0.1c-0.8,0-1.2-0.5-1.2-1.3v-2.8h-0.8V156h0.8v-1.1l0.7-0.2v1.4h1.2v0.6h-1.2v2.7c0,0.6,0.2,0.8,0.6,0.8
		c0.2,0,0.5-0.1,0.7-0.1L128.8,160.6z M143,170h-0.7v-3c0-0.7-0.3-1.1-0.9-1.1c-0.6,0-1.2,0.4-1.5,0.9v3.2h-0.7v-4.7h0.6l0.1,0.6
		c0.4-0.5,1-0.8,1.6-0.8c0.8,0,1.5,0.5,1.5,1.6V170z M137.7,170H137v-3c0-0.7-0.3-1.1-0.9-1.1c-0.6,0-1.2,0.4-1.5,0.9v3.2h-0.7v-6.9
		h0.7v2.9c0.4-0.5,1-0.7,1.6-0.7c0.8,0,1.5,0.5,1.5,1.6V170z M123.7,170c-0.3,0.1-0.6,0.1-0.9,0.1c-0.8,0-1.2-0.5-1.2-1.3V166h-0.8
		v-0.6h0.8v-1.1l0.7-0.2v1.4h1.2v0.6h-1.2v2.7c0,0.6,0.2,0.8,0.6,0.8c0.2,0,0.5-0.1,0.7-0.1L123.7,170z M146.4,167.7
		c0-1.7,1-2.4,2.3-2.4c0.3,0,0.8,0.1,1.1,0.2l-0.1,0.7c-0.4-0.1-0.8-0.2-1.2-0.2c-0.9,0-1.5,0.5-1.5,1.8c0,1.3,0.6,1.8,1.5,1.8
		c0.3,0,0.8,0,1.2-0.1l0.1,0.7c-0.4,0.1-0.8,0.1-1.1,0.1C147.4,170.1,146.4,169.4,146.4,167.7 M144.8,164.6c-0.3,0-0.5-0.2-0.5-0.5
		c0-0.3,0.2-0.5,0.5-0.5c0.3,0,0.5,0.2,0.5,0.5C145.4,164.4,145.1,164.6,144.8,164.6 M145.2,170h-0.7v-4.7h0.7V170z M129.5,167.7
		c0-1.7,1-2.4,2.3-2.4c0.3,0,0.8,0.1,1.1,0.2l-0.1,0.7c-0.4-0.1-0.8-0.2-1.2-0.2c-0.9,0-1.5,0.5-1.5,1.8c0,1.3,0.6,1.8,1.5,1.8
		c0.3,0,0.8,0,1.2-0.1l0.1,0.7c-0.4,0.1-0.8,0.1-1.1,0.1C130.5,170.1,129.5,169.4,129.5,167.7 M128.5,167.9h-3.4
		c0,1.2,0.7,1.5,1.5,1.5c0.5,0,1.1-0.1,1.5-0.3l0,0.7c-0.4,0.2-1.1,0.3-1.6,0.3c-1.2,0-2.3-0.8-2.3-2.4c0-1.3,0.7-2.4,2.2-2.4
		C128,165.3,128.5,166.3,128.5,167.9 M127.7,167.3c0-0.9-0.5-1.4-1.2-1.4c-0.9,0-1.4,0.6-1.4,1.4H127.7z M120.1,165.4l-2,5.6
		c-0.3,0.8-0.7,1.2-1.4,1.2c-0.2,0-0.4,0-0.6-0.1l0-0.7c0.2,0.1,0.5,0.1,0.7,0.1c0.4-0.1,0.6-0.3,0.7-0.8l0.3-0.7l-1.9-4.7h0.8
		l1.4,3.7l1.3-3.7H120.1z M114.8,170H114v-6.9h0.8V170z M109.3,167.7c0-1,0.3-1.8,1.4-1.8c1.1,0,1.4,0.8,1.4,1.8
		c0,1-0.3,1.8-1.4,1.8C109.6,169.5,109.3,168.7,109.3,167.7 M112.9,167.7c0-1.5-0.7-2.4-2.2-2.4c-1.5,0-2.2,1-2.2,2.4
		c0,1.5,0.7,2.4,2.2,2.4C112.2,170.1,112.9,169.1,112.9,167.7 M108.2,165.4c0-1.2-0.9-1.9-2-1.9h-2.3v6.5h0.8v-2.8h1.6
		C107.3,167.2,108.2,166.6,108.2,165.4 M104.6,164.2h1.5c0.8,0,1.3,0.3,1.3,1.2c0,0.8-0.6,1.2-1.3,1.2h-1.5V164.2z M95.6,172
		l0.1-0.7c0.5,0.2,1.1,0.4,1.7,0.3c0.8,0,1.5-0.4,1.5-1.6v-0.5c-0.2,0.2-0.6,0.6-1.4,0.6c-1.4,0-2.1-1.1-2.1-2.3
		c0-1.2,0.5-2.5,1.9-2.5c0.6,0,1.2,0.1,1.7,0.7l0.1-0.6h0.7v4.6c0,1.6-1,2.2-2.2,2.3C96.9,172.3,96.2,172.2,95.6,172 M98.9,167.8
		c0-1-0.3-1.9-1.5-1.9c-1,0-1.4,1-1.3,1.9c0,0.9,0.4,1.7,1.5,1.7C98.7,169.5,98.9,168.6,98.9,167.8 M77.7,166.6c0-1,0.9-1.3,1.7-1.3
		c0.4,0,0.9,0.1,1.2,0.1l-0.1,0.7c-0.2-0.1-0.7-0.2-1.1-0.2c-0.5,0-1,0.2-1,0.7c0,0.4,0.4,0.6,0.9,0.8c0.7,0.2,1.5,0.5,1.5,1.4
		c0,1-0.9,1.3-1.7,1.3c-0.4,0-1.1-0.1-1.4-0.2l0-0.8c0.3,0.2,0.9,0.3,1.4,0.3c0.5,0,1-0.2,1-0.7c0-0.5-0.5-0.6-1.1-0.9
		C78.4,167.7,77.7,167.4,77.7,166.6 M87.2,165.4H88v3c0,0.7,0.3,1.1,0.9,1.1c0.6,0,1.2-0.4,1.5-0.9v-3.2h0.7v4.7h-0.6l-0.1-0.6
		c-0.4,0.5-1,0.7-1.6,0.7c-0.8,0-1.5-0.5-1.5-1.6V165.4z M95,166c-0.1-0.1-0.3-0.1-0.6-0.1c-0.8,0-1.1,0.7-1.1,1.4v2.7h-0.7v-4.7
		h0.6l0.1,0.6c0.2-0.4,0.7-0.7,1.2-0.7c0.2,0,0.5,0,0.8,0.1L95,166z M77.1,166c-0.1-0.1-0.3-0.1-0.6-0.1c-0.8,0-1.1,0.7-1.1,1.4v2.7
		h-0.7v-4.7h0.6l0.1,0.6c0.2-0.4,0.7-0.7,1.2-0.7c0.2,0,0.5,0,0.8,0.1L77.1,166z M68.6,170c-0.3,0.1-0.6,0.1-0.9,0.1
		c-0.8,0-1.2-0.5-1.2-1.3V166h-0.8v-0.6h0.8v-1.1l0.7-0.2v1.4h1.2v0.6h-1.2v2.7c0,0.6,0.2,0.8,0.6,0.8c0.2,0,0.5-0.1,0.7-0.1
		L68.6,170z M52.5,170c-0.3,0.1-0.6,0.1-0.9,0.1c-0.8,0-1.2-0.5-1.2-1.3V166h-0.8v-0.6h0.8v-1.1l0.7-0.2v1.4h1.2v0.6h-1.2v2.7
		c0,0.6,0.2,0.8,0.6,0.8c0.2,0,0.5-0.1,0.7-0.1L52.5,170z M82.7,165.9v-2.7H82v6.8h0.7l0.1-0.6c0.4,0.5,1,0.7,1.6,0.7
		c1.4,0,2-1.2,2-2.5c0-1.3-0.6-2.4-2-2.4C83.4,165.3,82.9,165.7,82.7,165.9 M82.7,167.6c0-0.9,0.3-1.7,1.4-1.7c1,0,1.3,0.7,1.4,1.7
		c0,0.9-0.3,1.9-1.3,1.9C83,169.5,82.7,168.6,82.7,167.6 M73.4,167.9H70c0,1.2,0.7,1.5,1.5,1.5c0.5,0,1.1-0.1,1.5-0.3l0,0.7
		c-0.4,0.2-1.1,0.3-1.6,0.3c-1.2,0-2.3-0.8-2.3-2.4c0-1.3,0.7-2.4,2.2-2.4C72.9,165.3,73.4,166.3,73.4,167.9 M72.6,167.3
		c0-0.9-0.5-1.4-1.2-1.4c-0.9,0-1.4,0.6-1.4,1.4H72.6z M65,167.9h-3.4c0,1.2,0.7,1.5,1.5,1.5c0.5,0,1.1-0.1,1.5-0.3l0,0.7
		c-0.4,0.2-1.1,0.3-1.6,0.3c-1.2,0-2.3-0.8-2.3-2.4c0-1.3,0.7-2.4,2.2-2.4C64.5,165.3,65.1,166.3,65,167.9 M64.3,167.3
		c0-0.9-0.5-1.4-1.2-1.4c-0.9,0-1.4,0.6-1.4,1.4H64.3z M60.4,165.4c0-1.2-0.9-1.9-2-1.9H56v6.5h0.8v-2.8h1.6
		C59.5,167.2,60.4,166.6,60.4,165.4 M56.8,164.2h1.5c0.8,0,1.4,0.3,1.4,1.2c0,0.8-0.6,1.2-1.4,1.2h-1.5V164.2z M53.5,170.1
		c-0.3,0-0.5-0.2-0.5-0.5c0-0.3,0.2-0.5,0.5-0.5c0.3,0,0.5,0.2,0.5,0.5C54.1,169.8,53.8,170.1,53.5,170.1 M109,174
		c-0.3,0-0.5-0.2-0.5-0.5c0-0.3,0.2-0.5,0.5-0.5c0.3,0,0.5,0.2,0.5,0.5C109.6,173.7,109.3,174,109,174 M109.4,179.4h-0.7v-4.7h0.7
		V179.4z M90,174c-0.3,0-0.5-0.2-0.5-0.5c0-0.3,0.2-0.5,0.5-0.5c0.3,0,0.5,0.2,0.5,0.5C90.6,173.7,90.3,174,90,174 M90.4,179.4h-0.7
		v-4.7h0.7V179.4z M88.2,179.4h-0.7v-3c0-0.7-0.3-1.1-0.9-1.1c-0.6,0-1.2,0.4-1.5,0.9v3.2h-0.7v-4.7H85l0.1,0.6
		c0.4-0.5,1-0.8,1.6-0.8c0.8,0,1.5,0.5,1.5,1.6V179.4z M104.4,175.9c0-1,0.9-1.3,1.7-1.3c0.4,0,0.9,0.1,1.2,0.1l-0.1,0.7
		c-0.2-0.1-0.7-0.2-1.1-0.2c-0.5,0-1,0.2-1,0.7c0,0.4,0.4,0.6,0.9,0.8c0.7,0.2,1.5,0.5,1.5,1.4c0,1-0.9,1.3-1.7,1.3
		c-0.4,0-1.1-0.1-1.4-0.2l0-0.8c0.3,0.2,0.9,0.3,1.4,0.3c0.5,0,1-0.2,1-0.7c0-0.5-0.5-0.6-1.1-0.9
		C105.1,177.1,104.4,176.8,104.4,175.9 M103.7,175.4c-0.1-0.1-0.3-0.1-0.6-0.1c-0.8,0-1.1,0.7-1.1,1.4v2.7h-0.7v-4.7h0.6l0.1,0.6
		c0.2-0.4,0.7-0.7,1.2-0.7c0.2,0,0.5,0,0.8,0.1L103.7,175.4z M113.5,179.3c-0.3,0.1-0.6,0.1-0.9,0.1c-0.8,0-1.2-0.5-1.2-1.3v-2.8
		h-0.8v-0.6h0.8v-1.1l0.7-0.2v1.4h1.2v0.6h-1.2v2.7c0,0.6,0.2,0.8,0.6,0.8c0.2,0,0.5-0.1,0.7-0.1L113.5,179.3z M118.4,174.7l-2,5.6
		c-0.3,0.8-0.7,1.2-1.4,1.2c-0.2,0-0.4,0-0.6-0.1v-0.7c0.2,0.1,0.5,0.1,0.7,0.1c0.4,0,0.6-0.3,0.7-0.8l0.3-0.7l-1.9-4.7h0.8l1.4,3.7
		l1.3-3.7H118.4z M100.2,177.3h-3.4c0,1.2,0.7,1.5,1.5,1.5c0.5,0,1.1-0.1,1.5-0.3l0,0.7c-0.4,0.2-1.1,0.3-1.6,0.3
		c-1.2,0-2.3-0.8-2.3-2.4c0-1.3,0.7-2.4,2.2-2.4C99.7,174.6,100.3,175.7,100.2,177.3 M99.5,176.7c0-0.9-0.5-1.4-1.2-1.4
		c-0.9,0-1.4,0.6-1.4,1.4H99.5z M95.7,174.7l-1.9,4.7h-0.7l-1.7-4.7h0.8l1.2,3.4c0.1,0.2,0.1,0.4,0.2,0.6h0c0-0.2,0.1-0.4,0.1-0.6
		l1.2-3.4H95.7z M80.6,179.5c-1.6,0-2.5-0.8-2.5-2.5v-4.1h0.8v4c0,1.3,0.6,1.9,1.7,1.9c1.1,0,1.7-0.6,1.7-1.9v-4h0.8v4.1
		C83.1,178.7,82.2,179.5,80.6,179.5"/>
	<path class="st4" d="M134.6,139.9c0-2.1,0.3-3.8,1.5-4.9c0.7-0.6,1.9-0.9,3.1-0.9c1.5-0.1,3,0.2,4.1,0.4l0.4-3.4
		c-1.2-0.3-2.9-0.4-4.2-0.4c-2.5,0-4.4,0.6-5.9,1.7c-2,1.6-2.9,4.2-2.9,7.5c0,3.3,0.9,5.9,2.9,7.5c1.4,1.1,3.3,1.7,5.9,1.7
		c1.3,0,3-0.2,4.2-0.4l-0.4-3.4c-1,0.3-2.6,0.5-4.1,0.4c-1.2,0-2.4-0.3-3.1-0.9C134.9,143.7,134.6,142,134.6,139.9 M35.8,134.5h2.6
		c1.9,0,3.4,0.2,3.4,2.5c0,2.3-1.6,2.5-3.4,2.5h-2.6V134.5z M45.9,137.1c0-4.5-2.8-6.2-6.9-6.2h-7v18h3.9v-5.8h2.9
		C42.9,143.1,45.9,141.6,45.9,137.1 M53.5,139.9c0,3,0.6,5.8,4.4,5.8c3.8,0,4.4-2.8,4.4-5.8c0-3-0.6-5.8-4.4-5.8
		C54.1,134.1,53.5,136.9,53.5,139.9 M49.7,139.9c0-5.1,2.1-9.4,8.2-9.4c6.1,0,8.2,4.3,8.2,9.4s-2.1,9.4-8.2,9.4
		C51.8,149.3,49.7,145,49.7,139.9 M71.1,130.9v18h10.7v-3.6h-6.9v-14.4H71.1z M87.2,148.9v-8l-6.3-10h4.4l3.8,6.3l3.8-6.3h4.4
		l-6.3,10v8H87.2z M103.7,148.9v-14.4h-4.9v-3.6h13.7v3.6h-4.9v14.4H103.7z M119.6,138.1h7.1v3.5h-7.1v3.8h8.4v3.6h-12.2v-18H128
		v3.6h-8.4V138.1z M147.1,148.9v-18h3.8v7.1h6.8v-7.1h3.8v18h-3.8v-7.4h-6.8v7.4H147.1z"/>
</g>
</svg>
